<?xml version="1.0" standalone="no"?>
<!DOCTYPE svg PUBLIC "-//W3C//DTD SVG 20010904//EN"
 "http://www.w3.org/TR/2001/REC-SVG-20010904/DTD/svg10.dtd">
<svg version="1.0" xmlns="http://www.w3.org/2000/svg"
 width="200.000000pt" height="200.000000pt" viewBox="0 0 200.000000 200.000000"
 preserveAspectRatio="xMidYMid meet">
<metadata>
Created by potrace 1.11, written by Peter Selinger 2001-2013
</metadata>
<g transform="translate(0.000000,200.000000) scale(0.100000,-0.100000)"
fill="#000000" stroke="none">
<path d="M184 1636 c-17 -8 -44 -31 -60 -52 l-29 -37 -1 -436 c-1 -304 -5
-454 -14 -496 -13 -64 -43 -140 -66 -166 -13 -14 -11 -18 13 -27 35 -13 146
-48 195 -60 l37 -10 19 51 c18 48 25 72 37 137 3 14 8 61 11 105 3 44 7 86 9
93 6 17 42 15 49 -4 3 -9 6 -98 6 -199 l0 -183 128 2 127 1 5 192 c3 105 8
194 12 198 3 4 16 4 27 0 20 -6 21 -13 21 -201 l0 -194 130 0 130 0 2 191 c3
169 5 193 20 203 36 23 42 -4 43 -202 l0 -187 127 -1 128 -1 0 46 c3 314 5
334 23 345 28 17 43 -12 41 -79 -1 -64 16 -83 43 -46 14 20 17 21 38 7 25 -17
64 -11 81 13 10 13 16 14 37 2 44 -23 60 -12 61 43 1 35 6 52 18 60 28 17 36
-2 42 -99 6 -95 24 -186 51 -253 18 -45 11 -45 155 -1 120 38 123 39 105 59
-21 23 -53 109 -66 174 -6 30 -10 229 -10 482 1 431 1 431 -22 464 -12 18 -35
43 -50 54 -28 21 -34 21 -825 23 -656 2 -803 0 -828 -11z m1637 -75 l29 -29 1
-414 c1 -470 1 -478 31 -573 12 -38 22 -74 23 -79 0 -8 -125 -49 -131 -43 -6
6 -34 123 -39 162 -3 22 -7 71 -9 109 -2 58 -6 72 -25 88 -13 10 -29 19 -37
19 -8 1 -20 2 -26 3 -20 3 -65 -22 -72 -39 -3 -9 -6 -25 -6 -36 0 -17 -11 -24
-34 -20 -4 1 -19 -5 -31 -13 -37 -24 -78 -8 -86 34 -9 44 -52 82 -85 76 -85
-16 -91 -31 -90 -233 l1 -163 -72 0 -73 0 0 169 c0 162 -1 171 -22 196 -40 45
-110 38 -141 -14 -13 -22 -16 -57 -16 -167 0 -76 0 -149 -1 -161 0 -22 -4 -23
-72 -23 l-73 0 1 162 c2 185 -5 209 -60 228 -43 14 -92 -7 -106 -46 -6 -14
-10 -97 -10 -185 l0 -160 -72 3 -72 3 -1 160 c0 88 -4 170 -8 183 -9 24 -54
52 -78 48 -66 -11 -86 -42 -88 -136 -1 -36 -4 -79 -7 -95 -10 -57 -33 -138
-41 -146 -5 -5 -31 -2 -59 7 -27 9 -54 17 -61 19 -8 3 -3 26 15 77 l27 73 5
468 5 469 28 24 28 24 790 0 791 0 29 -29z"/>
<path d="M569 1422 c-17 -11 -19 -46 -4 -61 10 -9 848 -9 867 1 15 7 19 50 6
64 -3 2 -196 6 -428 7 -327 2 -427 -1 -441 -11z"/>
<path d="M344 1257 c-8 -5 -12 -12 -9 -16 7 -12 1324 -11 1331 1 3 5 3 12 0
15 -9 9 -1306 9 -1322 0z"/>
<path d="M335 1160 c-16 -25 39 -27 670 -26 568 1 660 3 660 15 0 13 -92 15
-663 15 -365 1 -665 -1 -667 -4z"/>
<path d="M340 1058 c0 -5 0 -11 0 -15 0 -11 1320 -11 1327 0 3 4 2 11 -2 15
-9 9 -1325 9 -1325 0z"/>
<path d="M347 962 c-20 -4 -22 -18 -4 -24 6 -2 306 -4 666 -4 514 1 655 4 659
14 2 6 -2 12 -10 13 -39 3 -1297 3 -1311 1z"/>
</g>
</svg>
